<?xml version="1.0" standalone="no"?>
<!DOCTYPE svg PUBLIC "-//W3C//DTD SVG 20010904//EN"
 "http://www.w3.org/TR/2001/REC-SVG-20010904/DTD/svg10.dtd">
<svg version="1.0" xmlns="http://www.w3.org/2000/svg"
 width="256.000000pt" height="256.000000pt" viewBox="0 0 256.000000 256.000000"
 preserveAspectRatio="xMidYMid meet">

<g transform="translate(0.000000,256.000000) scale(0.100000,-0.100000)"
fill="#000000" stroke="none">
<path d="M1505 2275 l-519 -185 -221 0 c-175 0 -225 -3 -241 -14 -15 -11 -20
-30 -24 -87 l-5 -73 -219 -78 c-120 -43 -225 -83 -232 -89 -12 -9 -14 -132
-14 -711 0 -462 4 -713 11 -741 23 -93 115 -179 207 -193 26 -4 106 -2 179 4
122 11 198 30 1035 253 497 132 918 250 935 261 18 11 48 38 67 60 67 78 66
64 66 753 0 590 -1 623 -18 638 -16 15 -46 17 -215 17 l-197 0 0 163 c0 176
-8 207 -53 207 -12 -1 -256 -84 -542 -185z m925 -870 c0 -639 1 -623 -58 -679
-23 -22 -60 -37 -154 -62 -68 -19 -129 -34 -135 -34 -10 0 -13 65 -13 290 l0
290 -175 0 -175 0 0 -340 c0 -187 -2 -340 -4 -340 -2 0 -248 -65 -547 -145
-299 -80 -550 -145 -556 -145 -10 0 -13 182 -13 875 l0 875 915 0 915 0 0
-585z"/>
<path d="M1985 1864 c-5 -1 -22 -5 -38 -8 -70 -16 -91 -94 -37 -140 17 -14 49
-31 70 -37 51 -16 78 -44 64 -67 -21 -33 -98 -27 -107 8 -4 15 -13 20 -36 20
-34 0 -37 -6 -19 -45 16 -36 57 -55 117 -55 65 0 111 35 111 85 0 45 -25 71
-94 98 -74 28 -90 50 -57 78 31 25 47 24 75 -6 26 -28 76 -35 76 -11 0 38 -82
91 -125 80z"/>
<path d="M920 1699 l0 -160 33 3 32 3 5 100 5 100 60 -102 c56 -97 62 -103 93
-103 l32 0 0 160 0 160 -35 0 -34 0 -3 -100 -3 -101 -60 101 c-56 94 -62 100
-92 100 l-33 0 0 -161z"/>
<path d="M1240 1700 l0 -160 100 0 100 0 0 25 c0 24 -2 25 -70 25 l-70 0 0 45
0 45 60 0 c57 0 60 1 60 25 0 24 -3 25 -60 25 l-60 0 0 40 0 40 70 0 c68 0 70
1 70 25 l0 25 -100 0 -100 0 0 -160z"/>
<path d="M1477 1793 c58 -254 56 -248 88 -251 l30 -3 29 106 c16 58 30 105 31
105 1 0 15 -47 30 -106 l28 -105 31 3 31 3 35 155 36 155 -29 3 c-16 2 -31 2
-33 -1 -2 -2 -11 -44 -20 -93 -9 -49 -20 -93 -24 -97 -4 -5 -13 13 -19 40 -35
143 -40 154 -68 151 -25 -3 -28 -10 -52 -101 -14 -53 -28 -94 -32 -90 -3 5
-14 50 -24 101 l-17 92 -33 0 -33 0 15 -67z"/>
<path d="M920 1445 l0 -25 575 0 575 0 0 25 0 25 -575 0 -575 0 0 -25z"/>
<path d="M920 1185 l0 -25 160 0 160 0 0 25 0 25 -160 0 -160 0 0 -25z"/>
<path d="M1320 1185 l0 -25 160 0 160 0 0 25 0 25 -160 0 -160 0 0 -25z"/>
<path d="M920 1045 l0 -25 160 0 160 0 0 25 0 25 -160 0 -160 0 0 -25z"/>
<path d="M1322 1048 c3 -23 6 -23 161 -26 l157 -3 0 26 0 25 -161 0 -160 0 3
-22z"/>
<path d="M920 915 l0 -25 160 0 160 0 0 25 0 25 -160 0 -160 0 0 -25z"/>
<path d="M1320 915 l0 -25 160 0 160 0 0 25 0 25 -160 0 -160 0 0 -25z"/>
<path d="M920 775 l0 -25 160 0 160 0 0 25 0 25 -160 0 -160 0 0 -25z"/>
<path d="M1320 775 l0 -25 160 0 160 0 0 25 0 25 -160 0 -160 0 0 -25z"/>
<path d="M920 635 l0 -25 160 0 160 0 0 25 0 25 -160 0 -160 0 0 -25z"/>
<path d="M1322 638 c3 -23 6 -23 161 -26 l157 -3 0 26 0 25 -161 0 -160 0 3
-22z"/>
<path d="M920 505 l0 -25 160 0 160 0 0 25 0 25 -160 0 -160 0 0 -25z"/>
</g>
</svg>
